<svg width="18" height="5" viewBox="0 0 18 5" fill="none" xmlns="http://www.w3.org/2000/svg">
<path d="M2.71168 4.30271C1.71674 4.30271 0.908447 3.49442 0.908447 2.50099C0.908447 1.50755 1.71674 0.697754 2.71168 0.697754C3.70662 0.697754 4.51491 1.50755 4.51491 2.50099C4.51491 3.49442 3.70662 4.30271 2.71168 4.30271Z" fill="#3B9E29"/>
<path d="M9.45411 4.30271C8.45917 4.30271 7.65088 3.49442 7.65088 2.50099C7.65088 1.50755 8.45917 0.697754 9.45411 0.697754C10.4491 0.697754 11.2573 1.50755 11.2573 2.50099C11.2573 3.49442 10.4491 4.30271 9.45411 4.30271Z" fill="#3B9E29"/>
<path d="M16.1968 4.30271C15.2018 4.30271 14.3936 3.49442 14.3936 2.50099C14.3936 1.50755 15.2018 0.697754 16.1968 0.697754C17.1917 0.697754 18 1.50755 18 2.50099C18 3.49442 17.1917 4.30271 16.1968 4.30271Z" fill="#3B9E29"/>
</svg>
