<svg width="24" height="24" viewBox="0 0 24 24" fill="none" xmlns="http://www.w3.org/2000/svg">
<path d="M21.4244 10.8114C21.1383 8.54307 20.0437 6.45401 18.3416 4.92761C16.6394 3.40122 14.4439 2.5399 12.1579 2.50174L12.8094 1.85547C12.8566 1.80936 12.8942 1.75438 12.92 1.69369C12.9458 1.63299 12.9593 1.56779 12.9598 1.50184C12.9603 1.43589 12.9478 1.37049 12.9229 1.30941C12.898 1.24833 12.8613 1.19278 12.8149 1.14595C12.7684 1.09912 12.7132 1.06195 12.6523 1.03656C12.5914 1.01118 12.5261 0.998089 12.4602 0.998047C12.3942 0.998005 12.3289 1.01101 12.268 1.03632C12.2071 1.06163 12.1518 1.09874 12.1053 1.14551L10.5216 2.71643C10.4749 2.76265 10.4379 2.81761 10.4125 2.87816C10.3871 2.93872 10.3739 3.00368 10.3736 3.06933C10.3734 3.13499 10.386 3.20006 10.4109 3.26082C10.4358 3.32157 10.4724 3.37684 10.5187 3.42344L12.1024 5.02024C12.1485 5.06739 12.2035 5.10496 12.2642 5.13077C12.3249 5.15658 12.3901 5.17013 12.456 5.17063C12.522 5.17114 12.5874 5.15859 12.6484 5.13371C12.7095 5.10883 12.7651 5.07211 12.8119 5.02567C12.8587 4.97923 12.8959 4.92398 12.9213 4.86311C12.9467 4.80224 12.9598 4.73695 12.9598 4.67099C12.9598 4.60504 12.9468 4.53973 12.9215 4.47883C12.8962 4.41793 12.8591 4.36263 12.8123 4.31613L12.0048 3.50172C13.7654 3.50296 15.4823 4.05088 16.9181 5.06981C18.354 6.08874 19.438 7.52839 20.0205 9.18991C20.603 10.8514 20.6551 12.6528 20.1698 14.3453C19.6844 16.0377 18.6855 17.5377 17.311 18.638C17.2076 18.7209 17.1413 18.8416 17.1268 18.9734C17.1196 19.0387 17.1253 19.1047 17.1437 19.1678C17.162 19.2308 17.1926 19.2896 17.2336 19.3409C17.2747 19.3921 17.3255 19.4348 17.383 19.4664C17.4406 19.498 17.5038 19.518 17.5691 19.5252C17.7009 19.5397 17.8331 19.5012 17.9365 19.4183C20.5372 17.3328 21.8412 14.1153 21.4244 10.8114ZM11.8978 18.9807C11.8517 18.9335 11.7967 18.896 11.736 18.8702C11.6753 18.8444 11.6101 18.8308 11.5442 18.8303C11.4782 18.8298 11.4128 18.8423 11.3517 18.8672C11.2907 18.8921 11.2351 18.9288 11.1883 18.9753C11.1415 19.0217 11.1043 19.077 11.0789 19.1378C11.0535 19.1987 11.0404 19.264 11.0404 19.3299C11.0403 19.3959 11.0533 19.4612 11.0787 19.5221C11.104 19.583 11.1411 19.6383 11.1878 19.6848L11.9954 20.4989C10.2349 20.4978 8.51824 19.95 7.08243 18.9314C5.64663 17.9127 4.56255 16.4733 3.97993 14.812C3.39731 13.1507 3.34489 11.3495 3.82992 9.6572C4.31494 7.96486 5.31347 6.46487 6.68761 5.3644C6.79105 5.28139 6.85728 5.16069 6.87172 5.02885C6.88617 4.89701 6.84765 4.76483 6.76465 4.66139C6.68164 4.55795 6.56094 4.49172 6.4291 4.47727C6.29726 4.46282 6.16508 4.50134 6.06164 4.58435C3.46223 6.67005 2.15901 9.88694 2.57578 13.1895C2.86179 15.4579 3.95639 17.547 5.65863 19.0734C7.36088 20.5998 9.55654 21.4609 11.8426 21.4989L11.1907 22.1455C11.1436 22.1916 11.106 22.2466 11.0802 22.3073C11.0544 22.368 11.0409 22.4332 11.0404 22.4991C11.0398 22.5651 11.0524 22.6305 11.0773 22.6916C11.1022 22.7526 11.1389 22.8082 11.1853 22.855C11.2318 22.9019 11.287 22.939 11.3479 22.9644C11.4087 22.9898 11.474 23.0029 11.54 23.0029C11.6059 23.003 11.6713 22.99 11.7322 22.9647C11.7931 22.9394 11.8484 22.9022 11.8949 22.8555L13.4786 21.2844C13.5252 21.2382 13.5623 21.1832 13.5877 21.1227C13.613 21.0621 13.6263 20.9972 13.6265 20.9315C13.6268 20.8659 13.6141 20.8008 13.5893 20.74C13.5644 20.6793 13.5278 20.624 13.4815 20.5774L11.8978 18.9807Z" fill="#3B9E29"/>
<path d="M12.3972 11.6056C12.3261 11.5784 12.2595 11.5533 12.2021 11.528C12.1391 11.5002 12.0637 11.4713 11.9804 11.4397C11.507 11.2598 11.2502 11.1178 11.2502 10.8825C11.2502 10.7787 11.3611 10.6174 11.5727 10.5102C11.7227 10.4344 12.2641 10.2268 12.9541 10.7339C13.007 10.7732 13.0671 10.8018 13.131 10.8178C13.195 10.8339 13.2614 10.8371 13.3266 10.8274C13.3918 10.8176 13.4545 10.7951 13.5109 10.7611C13.5674 10.727 13.6165 10.6822 13.6556 10.629C13.6946 10.5759 13.7228 10.5156 13.7384 10.4516C13.7541 10.3875 13.7569 10.321 13.7468 10.2559C13.7366 10.1908 13.7137 10.1283 13.6793 10.0721C13.6449 10.0158 13.5997 9.96693 13.5464 9.92822C13.2358 9.69666 12.879 9.53481 12.5002 9.45371V9.00103C12.4989 8.86927 12.4457 8.74333 12.3521 8.6506C12.2584 8.55788 12.132 8.50586 12.0002 8.50586C11.8684 8.50586 11.742 8.55788 11.6484 8.6506C11.5547 8.74333 11.5015 8.86927 11.5002 9.00103V9.47724C11.3695 9.5112 11.2425 9.55832 11.1213 9.61786C10.5839 9.88974 10.2502 10.3743 10.2502 10.8825C10.2502 11.8523 11.179 12.205 11.6255 12.3746C11.6902 12.399 11.7493 12.4212 11.7984 12.4429C11.8699 12.4744 11.9522 12.5062 12.0403 12.5399C12.5313 12.7274 12.7503 12.8512 12.7503 13.0883C12.7503 13.1921 12.6394 13.3534 12.4278 13.4604C12.2778 13.5361 11.7366 13.7441 11.0464 13.2368C10.9396 13.1582 10.8059 13.1253 10.6748 13.1453C10.5437 13.1654 10.426 13.2366 10.3474 13.3435C10.2689 13.4503 10.236 13.584 10.256 13.7151C10.276 13.8461 10.3473 13.9639 10.4542 14.0424C10.7645 14.275 11.1213 14.438 11.5003 14.5203V15.001C11.5016 15.1328 11.5548 15.2587 11.6485 15.3515C11.7421 15.4442 11.8685 15.4962 12.0003 15.4962C12.1321 15.4962 12.2585 15.4442 12.3521 15.3515C12.4458 15.2587 12.499 15.1328 12.5003 15.001V14.4955C12.6311 14.4609 12.758 14.413 12.8792 14.3528C13.4166 14.0809 13.7503 13.5965 13.7503 13.0884C13.7502 12.1226 12.87 11.7863 12.3972 11.6056Z" fill="#3B9E29"/>
<path d="M12 6.5C10.9122 6.5 9.84883 6.82257 8.94436 7.42691C8.03989 8.03126 7.33494 8.89024 6.91866 9.89523C6.50238 10.9002 6.39346 12.0061 6.60568 13.073C6.8179 14.1399 7.34172 15.1199 8.11091 15.8891C8.8801 16.6582 9.8601 17.1821 10.927 17.3943C11.9939 17.6065 13.0997 17.4976 14.1047 17.0813C15.1097 16.665 15.9687 15.9601 16.5731 15.0556C17.1774 14.1511 17.5 13.0878 17.5 12C17.4983 10.5418 16.9183 9.14382 15.8872 8.11273C14.8562 7.08164 13.4582 6.50165 12 6.5ZM12 16.5C11.11 16.5 10.2399 16.2361 9.49992 15.7416C8.7599 15.2471 8.18312 14.5443 7.84253 13.7221C7.50193 12.8998 7.41282 11.995 7.58645 11.1221C7.76009 10.2492 8.18867 9.44734 8.81801 8.818C9.44734 8.18867 10.2492 7.76008 11.1221 7.58645C11.995 7.41282 12.8998 7.50193 13.7221 7.84253C14.5443 8.18312 15.2471 8.7599 15.7416 9.49992C16.2361 10.2399 16.5 11.11 16.5 12C16.4986 13.193 16.024 14.3368 15.1804 15.1804C14.3368 16.024 13.193 16.4986 12 16.5Z" fill="#3B9E29"/>
</svg>
